<svg xmlns="http://www.w3.org/2000/svg" width="205.485" height="33" viewBox="0 0 205.485 33"><g transform="translate(0 -0.125)"><path d="M12.144,0H2.358V-21.592H12.847q3.97.059,5.625,2.3a5.472,5.472,0,0,1,1,3.3,4.82,4.82,0,0,1-1,3.179,5.141,5.141,0,0,1-1.641,1.23,4.814,4.814,0,0,1,2.5,1.9,5.707,5.707,0,0,1,.842,3.164A6.288,6.288,0,0,1,19.2-3.076a5.966,5.966,0,0,1-1.538,1.7A6,6,0,0,1,15.212-.293,15.125,15.125,0,0,1,12.144,0Zm-.1-9.507H6.665V-3.75h5.3a5.205,5.205,0,0,0,2.212-.381,2.712,2.712,0,0,0,1.436-2.7,2.315,2.315,0,0,0-1.392-2.314A5.575,5.575,0,0,0,12.041-9.507Zm2.241-4.116a2.02,2.02,0,0,0,.879-1.89A1.932,1.932,0,0,0,13.989-17.5a8.294,8.294,0,0,0-2.578-.337H6.665v4.761h5.3A4.413,4.413,0,0,0,14.282-13.623Zm23,8.936A5.3,5.3,0,0,1,35.8-1.8,7.248,7.248,0,0,1,30.059.527a8.1,8.1,0,0,1-5.376-1.963Q22.354-3.4,22.354-7.822a8.877,8.877,0,0,1,2.1-6.357,7.187,7.187,0,0,1,5.457-2.212,8.368,8.368,0,0,1,3.589.747,6.287,6.287,0,0,1,2.637,2.358,8.047,8.047,0,0,1,1.216,3.3,21.285,21.285,0,0,1,.132,3.164H26.558a3.968,3.968,0,0,0,1.509,3.369,3.554,3.554,0,0,0,2.08.6,2.994,2.994,0,0,0,2.095-.732,3.479,3.479,0,0,0,.776-1.1ZM33.149-9.58a3.634,3.634,0,0,0-1-2.512,3.116,3.116,0,0,0-2.234-.857,2.835,2.835,0,0,0-2.249.908,4.533,4.533,0,0,0-1,2.461ZM46.787-4.189l3.3-11.777h4.438L49.043-.264a22.051,22.051,0,0,1-2.5,5.632Q45.615,6.46,42.847,6.46q-.557,0-.894-.007T40.942,6.4V3.062l.527.029a6.579,6.579,0,0,0,1.172-.044,2.1,2.1,0,0,0,.938-.337,2.253,2.253,0,0,0,.681-1.04A2.2,2.2,0,0,0,44.517.7l-5.859-16.67H43.3ZM70.3-13.945a9.317,9.317,0,0,1,2.021,5.991A9.256,9.256,0,0,1,70.3-1.941Q68.276.557,64.16.557t-6.138-2.5A9.256,9.256,0,0,1,56-7.954a9.317,9.317,0,0,1,2.021-5.991q2.021-2.534,6.138-2.534T70.3-13.945Zm-6.152,1a3.336,3.336,0,0,0-2.82,1.3,6,6,0,0,0-.989,3.7,6.032,6.032,0,0,0,.989,3.706,3.329,3.329,0,0,0,2.82,1.3,3.309,3.309,0,0,0,2.813-1.3,6.065,6.065,0,0,0,.981-3.706,6.032,6.032,0,0,0-.981-3.7A3.316,3.316,0,0,0,64.146-12.949Zm18.677.073a2.907,2.907,0,0,0-2.915,1.8,6.189,6.189,0,0,0-.41,2.432V0h-4.16V-15.937h4.028v2.329a7.087,7.087,0,0,1,1.523-1.772,5.294,5.294,0,0,1,3.267-.967,6.163,6.163,0,0,1,4.05,1.3q1.575,1.3,1.575,4.3V0H85.5V-9.712a4.432,4.432,0,0,0-.337-1.934A2.37,2.37,0,0,0,82.822-12.876Zm25.342-8.687V0h-4.058V-2.212A5.889,5.889,0,0,1,102.07-.146,5.716,5.716,0,0,1,99.229.5a5.933,5.933,0,0,1-4.709-2.263,8.691,8.691,0,0,1-1.912-5.808A10,10,0,0,1,94.49-14a6.124,6.124,0,0,1,5.032-2.344,5.15,5.15,0,0,1,2.578.637,5.071,5.071,0,0,1,1.831,1.765v-7.617ZM96.914-7.881a6.278,6.278,0,0,0,.879,3.53,2.926,2.926,0,0,0,2.637,1.333,3.082,3.082,0,0,0,2.7-1.318,5.824,5.824,0,0,0,.923-3.413q0-2.93-1.479-4.189a3.184,3.184,0,0,0-2.109-.762,2.932,2.932,0,0,0-2.688,1.384A6.413,6.413,0,0,0,96.914-7.881Zm15.381-13.711h4.512v17.71H127.5V0H112.295Zm22.28,5.625V0h-4.233V-15.967Zm0-5.757v3.853h-4.233v-3.853Zm11.528,0v3.4q-.352-.044-1.179-.066a1.357,1.357,0,0,0-1.143.366,1.329,1.329,0,0,0-.315.857v1.348h2.739v2.944h-2.739V0h-4.16V-12.876h-2.329V-15.82h2.285v-1.025a5.4,5.4,0,0,1,.864-3.53q.908-1.436,4.38-1.436.4,0,.718.022T146.1-21.724ZM162.275-4.687A5.3,5.3,0,0,1,160.8-1.8,7.248,7.248,0,0,1,155.054.527a8.1,8.1,0,0,1-5.376-1.963q-2.329-1.963-2.329-6.387a8.877,8.877,0,0,1,2.1-6.357,7.187,7.187,0,0,1,5.457-2.212,8.368,8.368,0,0,1,3.589.747,6.287,6.287,0,0,1,2.637,2.358,8.047,8.047,0,0,1,1.216,3.3,21.285,21.285,0,0,1,.132,3.164H151.553a3.968,3.968,0,0,0,1.509,3.369,3.554,3.554,0,0,0,2.08.6,2.994,2.994,0,0,0,2.095-.732,3.479,3.479,0,0,0,.776-1.1ZM158.145-9.58a3.634,3.634,0,0,0-1-2.512,3.116,3.116,0,0,0-2.234-.857,2.835,2.835,0,0,0-2.249.908,4.533,4.533,0,0,0-1,2.461Z" transform="translate(43 25)" fill="#1d252c"/><path d="M26.3-23.719a4.65,4.65,0,0,0-.756.062,4.649,4.649,0,0,0-4.4-3.165,4.634,4.634,0,0,0-1.2.158,4.643,4.643,0,0,0-3.952-2.211,4.647,4.647,0,0,0-3.957,2.22,4.576,4.576,0,0,0-1.192-.157,4.651,4.651,0,0,0-4.646,4.641v7.838a5.507,5.507,0,0,0-1.031-.1h0A5.157,5.157,0,0,0,0-9.275,5.119,5.119,0,0,0,1.383-5.765L6.62-.142a13.443,13.443,0,0,0,9.809,4.267h2.132A12.387,12.387,0,0,0,30.937-8.25V-19.078A4.646,4.646,0,0,0,26.3-23.719ZM27.844-8.25a9.279,9.279,0,0,1-9.223,9.281H16.429A10.315,10.315,0,0,1,8.882-2.253L3.741-7.772a2.249,2.249,0,0,1-.606-1.489,1.994,1.994,0,0,1,2.021-2.024,2.059,2.059,0,0,1,1.509.656L8.387-8.78a.806.806,0,0,0,.372.1.515.515,0,0,0,.52-.517v-12.98a1.536,1.536,0,0,1,1.489-1.547,1.5,1.5,0,0,1,1.489,1.547v9.8a1.236,1.236,0,0,0,1.15,1.031.971.971,0,0,0,.973-.973l.058-11.917a1.536,1.536,0,0,1,1.489-1.547,1.5,1.5,0,0,1,1.489,1.547v11.859a1.232,1.232,0,0,0,1.147,1.031,1.022,1.022,0,0,0,1.031-.973v-9.81a1.536,1.536,0,0,1,1.489-1.547,1.5,1.5,0,0,1,1.489,1.547v9.81a1.237,1.237,0,0,0,1.147.973.971.971,0,0,0,.973-.973v-6.761a1.536,1.536,0,0,1,1.489-1.547,1.5,1.5,0,0,1,1.489,1.547V-8.25Z" transform="translate(0 29)" fill="#1d252c"/></g></svg>