<svg xmlns="http://www.w3.org/2000/svg" width="30.938" height="33" viewBox="0 0 30.938 33">
  <path id="Pfad_27" data-name="Pfad 27" d="M26.3-23.719a4.65,4.65,0,0,0-.756.062,4.649,4.649,0,0,0-4.4-3.165,4.634,4.634,0,0,0-1.2.158,4.643,4.643,0,0,0-3.952-2.211,4.647,4.647,0,0,0-3.957,2.22,4.576,4.576,0,0,0-1.192-.157,4.651,4.651,0,0,0-4.646,4.641v7.838a5.507,5.507,0,0,0-1.031-.1h0A5.157,5.157,0,0,0,0-9.275,5.119,5.119,0,0,0,1.383-5.765L6.62-.142a13.443,13.443,0,0,0,9.809,4.267h2.132A12.387,12.387,0,0,0,30.937-8.25V-19.078A4.646,4.646,0,0,0,26.3-23.719ZM27.844-8.25a9.279,9.279,0,0,1-9.223,9.281H16.429A10.315,10.315,0,0,1,8.882-2.253L3.741-7.772a2.249,2.249,0,0,1-.606-1.489,1.994,1.994,0,0,1,2.021-2.024,2.059,2.059,0,0,1,1.509.656L8.387-8.78a.806.806,0,0,0,.372.1.515.515,0,0,0,.52-.517v-12.98a1.536,1.536,0,0,1,1.489-1.547,1.5,1.5,0,0,1,1.489,1.547v9.8a1.236,1.236,0,0,0,1.15,1.031.971.971,0,0,0,.973-.973l.058-11.917a1.536,1.536,0,0,1,1.489-1.547,1.5,1.5,0,0,1,1.489,1.547v11.859a1.232,1.232,0,0,0,1.147,1.031,1.022,1.022,0,0,0,1.031-.973v-9.81a1.536,1.536,0,0,1,1.489-1.547,1.5,1.5,0,0,1,1.489,1.547v9.81a1.237,1.237,0,0,0,1.147.973.971.971,0,0,0,.973-.973v-6.761a1.536,1.536,0,0,1,1.489-1.547,1.5,1.5,0,0,1,1.489,1.547V-8.25Z" transform="translate(0 28.875)" fill="#1d252c"/>
</svg>
